<svg xmlns="http://www.w3.org/2000/svg" version="1.1" xmlns:xlink="http://www.w3.org/1999/xlink" xmlns:svgjs="http://svgjs.dev/svgjs" width="1500" height="1500" viewBox="0 0 1500 1500"><rect width="1500" height="1500" fill="#ffffff"></rect><g transform="matrix(0.6666666666666666,0,0,0.6666666666666666,250,187.66666666666674)"><svg viewBox="0 0 320 360" data-background-color="#ffffff" preserveAspectRatio="xMidYMid meet" height="1687" width="1500" xmlns="http://www.w3.org/2000/svg" xmlns:xlink="http://www.w3.org/1999/xlink"><g id="tight-bounds" transform="matrix(1,0,0,1,0,0)"><svg viewBox="0 0 320 360" height="360" width="320"><g><svg></svg></g><g><svg viewBox="0 0 320 360" height="360" width="320"><g><path d="M320 187.111c0-45.764-20.238-86.866-52.203-114.908-28.043-31.964-69.145-52.203-114.908-52.203-84.302 0-152.889 68.587-152.889 152.889 0 45.753 20.231 86.848 52.185 114.891 28.043 31.975 69.152 52.22 114.926 52.22 0.299 0 0.59-0.021 0.889-0.021 0.299 0 0.59 0.021 0.889 0.021 83.456 0 151.111-67.655 151.111-151.111 0-0.299-0.021-0.59-0.021-0.889 0-0.299 0.021-0.59 0.021-0.889zM59.833 263.097c-15.093-21.255-24.071-47.143-24.256-75.097 0.48-72.928 59.492-131.943 132.423-132.423 27.954 0.185 53.845 9.163 75.097 24.256 24.366 23.627 39.57 56.64 39.57 93.056 0 71.559-58.219 129.778-129.778 129.778-36.416 0-69.429-15.204-93.056-39.57zM3.556 172.889c0-82.343 66.99-149.333 149.333-149.333 35.051 0 67.292 12.167 92.8 32.462-22.98-13.824-49.863-21.796-78.578-21.796-84.302 0-152.889 68.587-152.889 152.889 0 28.708 7.968 55.584 21.785 78.56-20.288-25.5-32.452-57.739-32.451-92.782zM167.111 318.667c-35.84 0-68.363-14.418-92.107-37.743 21.952 15.89 48.864 25.298 77.885 25.298 73.522 0 133.333-59.812 133.333-133.333 0-29.02-9.408-55.932-25.298-77.885 23.324 23.744 37.742 56.267 37.743 92.107 0 72.54-59.015 131.556-131.556 131.556z" fill="#ff5a00" fill-rule="nonzero" stroke="none" stroke-width="1" stroke-linecap="butt" stroke-linejoin="miter" stroke-miterlimit="10" stroke-dasharray="" stroke-dashoffset="0" font-family="none" font-weight="none" font-size="none" text-anchor="none" style="mix-blend-mode: normal" data-fill-palette-color="tertiary"></path></g><g transform="matrix(1,0,0,1,64,158.02391675726045)"><svg viewBox="0 0 192 43.95216648547911" height="43.95216648547911" width="192"><g><svg viewBox="0 0 192 43.95216648547911" height="43.95216648547911" width="192"><g><svg viewBox="0 0 192 43.95216648547911" height="43.95216648547911" width="192"><g><svg viewBox="0 0 192 43.95216648547911" height="43.95216648547911" width="192"><g id="textblocktransform"><svg viewBox="0 0 192 43.95216648547911" height="43.95216648547911" width="192" id="textblock"><g><svg viewBox="0 0 192 43.95216648547911" height="43.95216648547911" width="192"><g transform="matrix(1,0,0,1,0,0)"><svg width="192" viewBox="4 -35.5 157.19 35.99" height="43.95216648547911" data-palette-color="#ff5900"><path d="M23.71-22.05L23.71-22.05Q23.71-20.26 23.03-18.7 22.36-17.14 21.19-15.97 20.02-14.79 18.44-14.12 16.87-13.45 15.09-13.45L15.09-13.45 7.15-13.45 7.15 0 4 0 4-35.01 15.09-35.01Q16.87-35.01 18.44-34.34 20.02-33.67 21.19-32.5 22.36-31.32 23.03-29.75 23.71-28.17 23.71-26.39L23.71-26.39 23.71-22.05ZM20.56-22.05L20.56-26.39Q20.56-27.56 20.12-28.58 19.68-29.59 18.91-30.36 18.14-31.13 17.13-31.57 16.11-32.01 14.94-32.01L14.94-32.01 7.15-32.01 7.15-16.46 14.94-16.46Q16.11-16.46 17.13-16.89 18.14-17.33 18.91-18.09 19.68-18.85 20.12-19.86 20.56-20.87 20.56-22.05L20.56-22.05ZM54.42 0L51.27 0 51.27-24 51.05-22.51 42.92 0 41.26 0 33.05-22.51 32.86-24 32.86 0 29.71 0 29.71-35.01 31.35-35.01 41.97-6.3 42.06-5 42.16-6.3 52.76-35.01 54.42-35.01 54.42 0ZM81.59-8.11L81.59-8.11Q81.59-6.32 80.92-4.76 80.24-3.2 79.07-2.03 77.9-0.85 76.34-0.18 74.78 0.49 72.99 0.49L72.99 0.49 70.5 0.49Q68.72 0.49 67.15-0.18 65.57-0.85 64.4-2.03 63.23-3.2 62.56-4.76 61.88-6.32 61.88-8.11L61.88-8.11 61.88-26.9Q61.88-28.69 62.56-30.25 63.23-31.81 64.4-32.98 65.57-34.16 67.15-34.83 68.72-35.5 70.5-35.5L70.5-35.5 72.99-35.5Q74.78-35.5 76.34-34.83 77.9-34.16 79.07-32.98 80.24-31.81 80.92-30.25 81.59-28.69 81.59-26.9L81.59-26.9 81.59-25.49 78.44-25 78.44-26.9Q78.44-28.08 78-29.09 77.56-30.1 76.8-30.86 76.04-31.62 75.03-32.06 74.02-32.5 72.85-32.5L72.85-32.5 70.65-32.5Q69.48-32.5 68.46-32.06 67.45-31.62 66.68-30.86 65.91-30.1 65.47-29.09 65.03-28.08 65.03-26.9L65.03-26.9 65.03-8.11Q65.03-6.93 65.47-5.92 65.91-4.91 66.68-4.14 67.45-3.37 68.46-2.93 69.48-2.49 70.65-2.49L70.65-2.49 72.85-2.49Q74.02-2.49 75.03-2.93 76.04-3.37 76.8-4.14 77.56-4.91 78-5.92 78.44-6.93 78.44-8.11L78.44-8.11 78.44-10.01 81.59-9.5 81.59-8.11ZM107.78-8.11L107.78-8.11Q107.78-6.32 107.11-4.76 106.44-3.2 105.27-2.03 104.09-0.85 102.53-0.18 100.97 0.49 99.19 0.49L99.19 0.49 96.7 0.49Q94.91 0.49 93.34-0.18 91.76-0.85 90.59-2.03 89.42-3.2 88.75-4.76 88.08-6.32 88.08-8.11L88.08-8.11 88.08-26.9Q88.08-28.69 88.75-30.25 89.42-31.81 90.59-32.98 91.76-34.16 93.34-34.83 94.91-35.5 96.7-35.5L96.7-35.5 99.19-35.5Q100.97-35.5 102.53-34.83 104.09-34.16 105.27-32.98 106.44-31.81 107.11-30.25 107.78-28.69 107.78-26.9L107.78-26.9 107.78-25.49 104.63-25 104.63-26.9Q104.63-28.08 104.19-29.09 103.75-30.1 103-30.86 102.24-31.62 101.23-32.06 100.21-32.5 99.04-32.5L99.04-32.5 96.84-32.5Q95.67-32.5 94.66-32.06 93.64-31.62 92.88-30.86 92.11-30.1 91.67-29.09 91.23-28.08 91.23-26.9L91.23-26.9 91.23-8.11Q91.23-6.93 91.67-5.92 92.11-4.91 92.88-4.14 93.64-3.37 94.66-2.93 95.67-2.49 96.84-2.49L96.84-2.49 99.04-2.49Q100.21-2.49 101.23-2.93 102.24-3.37 103-4.14 103.75-4.91 104.19-5.92 104.63-6.93 104.63-8.11L104.63-8.11 104.63-10.01 107.78-9.5 107.78-8.11ZM133.97-8.11L133.97-8.11Q133.97-6.32 133.3-4.76 132.63-3.2 131.46-2.03 130.29-0.85 128.73-0.18 127.16 0.49 125.38 0.49L125.38 0.49 122.89 0.49Q121.11 0.49 119.53-0.18 117.96-0.85 116.79-2.03 115.62-3.2 114.94-4.76 114.27-6.32 114.27-8.11L114.27-8.11 114.27-26.9Q114.27-28.69 114.94-30.25 115.62-31.81 116.79-32.98 117.96-34.16 119.53-34.83 121.11-35.5 122.89-35.5L122.89-35.5 125.38-35.5Q127.16-35.5 128.73-34.83 130.29-34.16 131.46-32.98 132.63-31.81 133.3-30.25 133.97-28.69 133.97-26.9L133.97-26.9 133.97-8.11ZM130.82-8.11L130.82-26.9Q130.82-28.08 130.39-29.09 129.95-30.1 129.19-30.86 128.43-31.62 127.42-32.06 126.41-32.5 125.23-32.5L125.23-32.5 123.04-32.5Q121.87-32.5 120.85-32.06 119.84-31.62 119.07-30.86 118.3-30.1 117.86-29.09 117.42-28.08 117.42-26.9L117.42-26.9 117.42-8.11Q117.42-6.93 117.86-5.92 118.3-4.91 119.07-4.14 119.84-3.37 120.85-2.93 121.87-2.49 123.04-2.49L123.04-2.49 125.23-2.49Q126.41-2.49 127.42-2.93 128.43-3.37 129.19-4.14 129.95-4.91 130.39-5.92 130.82-6.93 130.82-8.11L130.82-8.11ZM161.19 0L159.53 0 144.93-25.49 144.64-27 144.64 0 141.49 0 141.49-35.01 143.13-35.01 157.73-9.5 158.04-8.01 158.04-35.01 161.19-35.01 161.19 0Z" opacity="1" transform="matrix(1,0,0,1,0,0)" fill="#ff5900" class="wordmark-text-0" data-fill-palette-color="primary" id="text-0"></path></svg></g></svg></g></svg></g></svg></g></svg></g></svg></g></svg></g></svg></g><defs></defs></svg><rect width="320" height="360" fill="none" stroke="none" visibility="hidden"></rect></g></svg></g></svg>